<?xml version="1.0" standalone="no"?>
<!DOCTYPE svg PUBLIC "-//W3C//DTD SVG 20010904//EN"
 "http://www.w3.org/TR/2001/REC-SVG-20010904/DTD/svg10.dtd">
<svg version="1.0" xmlns="http://www.w3.org/2000/svg"
 width="100.000000pt" height="28.000000pt" viewBox="0 0 100.000000 28.000000"
 preserveAspectRatio="xMidYMid meet">

<g transform="translate(0.000000,28.000000) scale(0.100000,-0.100000)"
fill="#000000" stroke="none">
<path d="M0 140 l0 -140 500 0 500 0 0 140 0 140 -500 0 -500 0 0 -140z m239
46 c7 -8 15 -30 18 -49 4 -29 2 -37 -17 -47 -13 -7 -25 -8 -29 -3 -8 12 -54
12 -62 0 -4 -5 -16 -4 -29 3 -19 10 -21 18 -17 47 3 19 11 41 18 49 15 19 103
19 118 0z m305 -2 c21 -8 10 -25 -12 -18 -11 3 -10 0 6 -12 44 -33 25 -51 -53
-53 l-41 -1 1 40 c0 34 3 40 21 40 17 0 20 -5 16 -30 -4 -27 -1 -30 22 -30 14
0 26 5 26 10 0 6 -6 10 -14 10 -24 0 -30 22 -11 37 22 15 19 15 39 7z m83 -11
c2 -6 -4 -10 -14 -9 -26 2 -30 -34 -4 -41 24 -6 29 -23 7 -23 -31 0 -46 13
-46 41 0 38 46 65 57 32z m71 5 c7 -7 12 -24 12 -39 0 -29 -21 -43 -51 -34
-34 11 -19 85 16 85 6 0 16 -5 23 -12z m-262 -23 c8 -33 -12 -57 -45 -53 -22
3 -26 9 -29 41 -3 36 -3 37 32 37 30 0 37 -4 42 -25z m347 11 c3 -7 1 -18 -5
-24 -6 -6 -6 -12 1 -16 6 -4 11 -11 11 -17 0 -15 -22 -10 -36 9 -13 16 -13 16
-14 0 0 -38 -20 -16 -20 22 0 37 2 40 29 40 16 0 31 -6 34 -14z m85 -14 c5
-30 -14 -52 -44 -52 -21 0 -24 5 -24 41 0 39 1 40 33 37 25 -2 33 -8 35 -26z"/>
<path d="M145 140 c-3 -5 -1 -10 4 -10 6 0 11 5 11 10 0 6 -2 10 -4 10 -3 0
-8 -4 -11 -10z"/>
<path d="M200 140 c0 -5 5 -10 11 -10 5 0 7 5 4 10 -3 6 -8 10 -11 10 -2 0 -4
-4 -4 -10z"/>
<path d="M664 156 c-4 -10 -2 -22 4 -28 8 -8 13 -7 18 6 4 10 2 22 -4 28 -8 8
-13 7 -18 -6z"/>
<path d="M390 140 c0 -11 5 -20 10 -20 6 0 10 9 10 20 0 11 -4 20 -10 20 -5 0
-10 -9 -10 -20z"/>
<path d="M740 160 c0 -5 5 -10 10 -10 6 0 10 5 10 10 0 6 -4 10 -10 10 -5 0
-10 -4 -10 -10z"/>
<path d="M820 140 c0 -11 5 -20 10 -20 6 0 10 9 10 20 0 11 -4 20 -10 20 -5 0
-10 -9 -10 -20z"/>
</g>
</svg>
